<?xml version="1.0" encoding="utf-8"?>
<!-- Generator: Adobe Illustrator 21.0.1, SVG Export Plug-In . SVG Version: 6.00 Build 0)  -->
<svg version="1.1" id="Layer_1" xmlns="http://www.w3.org/2000/svg" xmlns:xlink="http://www.w3.org/1999/xlink" x="0px" y="0px"
	 viewBox="0 0 214.8 322.3" style="enable-background:new 0 0 214.8 322.3;" xml:space="preserve">
<style type="text/css">
	.st0{fill:#FFFFFF;}
</style>
<g>
	<path class="st0" d="M0,289.5c0-0.6,0.2-1.2,0.6-1.6c0.4-0.4,1-0.6,1.6-0.6c0.6,0,1.2,0.2,1.6,0.6c0.4,0.4,0.6,1,0.6,1.6v15.4
		c0,1.8,0.3,3.4,1,5c0.7,1.6,1.6,2.9,2.8,4.1c1.2,1.2,2.5,2.1,4.1,2.8c1.6,0.7,3.2,1,5,1c1.8,0,3.4-0.3,5-1c1.6-0.7,2.9-1.6,4.1-2.8
		c1.2-1.2,2.1-2.5,2.8-4.1c0.7-1.6,1-3.2,1-5v-15.4c0-0.6,0.2-1.2,0.6-1.6c0.4-0.4,1-0.6,1.6-0.6c0.6,0,1.2,0.2,1.6,0.6
		c0.4,0.4,0.6,1,0.6,1.6v15.4c0,2.4-0.5,4.7-1.4,6.8c-0.9,2.1-2.1,3.9-3.7,5.5c-1.6,1.6-3.4,2.8-5.5,3.7c-2.1,0.9-4.4,1.4-6.8,1.4
		c-2.4,0-4.7-0.5-6.8-1.4c-2.1-0.9-3.9-2.1-5.5-3.7c-1.6-1.6-2.8-3.4-3.7-5.5c-0.9-2.1-1.4-4.4-1.4-6.8V289.5z"/>
	<path class="st0" d="M38.6,304.6c0-2.4,0.5-4.7,1.4-6.8c0.9-2.1,2.1-3.9,3.7-5.5c1.6-1.6,3.4-2.8,5.5-3.7c2.1-0.9,4.4-1.4,6.8-1.4
		c2.4,0,4.7,0.5,6.8,1.4c2.1,0.9,3.9,2.1,5.5,3.7c1.6,1.6,2.8,3.4,3.7,5.5c0.9,2.1,1.4,4.4,1.4,6.8V320c0,0.6-0.2,1.2-0.6,1.6
		c-0.4,0.4-1,0.6-1.6,0.6c-0.6,0-1.2-0.2-1.6-0.6c-0.4-0.4-0.6-1-0.6-1.6v-15.4c0-1.8-0.3-3.4-1-5c-0.7-1.6-1.6-2.9-2.8-4.1
		c-1.2-1.2-2.5-2.1-4.1-2.8c-1.6-0.7-3.2-1-5-1c-1.8,0-3.4,0.3-5,1c-1.6,0.7-2.9,1.6-4.1,2.8c-1.2,1.2-2.1,2.5-2.8,4.1
		c-0.7,1.6-1,3.2-1,5V320c0,0.6-0.2,1.2-0.6,1.6c-0.4,0.4-1,0.6-1.6,0.6c-0.6,0-1.2-0.2-1.6-0.6c-0.4-0.4-0.6-1-0.6-1.6V304.6z"/>
	<path class="st0" d="M91.4,320c0,0.6-0.2,1.2-0.6,1.6c-0.4,0.4-1,0.6-1.6,0.6c-2.2,0-4.1-0.5-5.5-1.3c-1.5-0.8-2.7-1.8-3.6-3
		c-0.9-1.2-1.6-2.5-2-3.8c-0.4-1.3-0.6-2.5-0.6-3.6v-32.6c0-0.6,0.2-1.2,0.6-1.6c0.4-0.4,1-0.6,1.6-0.6c0.6,0,1.2,0.2,1.6,0.6
		c0.4,0.4,0.6,1,0.6,1.6v32.6c0,0.4,0.1,1,0.3,1.7c0.2,0.8,0.5,1.6,1,2.4c0.5,0.8,1.3,1.5,2.2,2.2c1,0.6,2.2,1,3.8,1
		c0.6,0,1.2,0.2,1.6,0.6C91.2,318.8,91.4,319.4,91.4,320z"/>
	<path class="st0" d="M108.1,287.4c2.3,0,4.5,0.5,6.6,1.4c2.1,0.9,3.9,2.2,5.5,3.8c1.6,1.6,2.8,3.4,3.8,5.5c0.9,2.1,1.4,4.4,1.4,6.8
		c0,2.4-0.5,4.6-1.4,6.7c-0.9,2.1-2.1,3.9-3.7,5.5c-1.6,1.6-3.4,2.8-5.5,3.7c-2.1,0.9-4.4,1.4-6.8,1.4c-2.4,0-4.6-0.4-6.7-1.3
		c-2.1-0.9-3.9-2.1-5.5-3.6c-1.6-1.5-2.8-3.4-3.7-5.5c-0.9-2.1-1.4-4.4-1.4-6.9c0-2.4,0.4-4.6,1.3-6.7c0.9-2.1,2.1-3.9,3.7-5.5
		c1.6-1.6,3.4-2.8,5.5-3.7C103.3,288,105.6,287.5,108.1,287.4z M95.1,304.9c0,1.8,0.3,3.4,1,5c0.7,1.6,1.6,2.9,2.8,4.1
		c1.2,1.2,2.5,2.1,4.1,2.8c1.6,0.7,3.2,1,5,1c1.8,0,3.5-0.3,5-1c1.6-0.7,3-1.6,4.1-2.8c1.2-1.2,2.1-2.5,2.8-4.1c0.7-1.6,1-3.2,1-5
		c0-1.8-0.3-3.5-1-5c-0.7-1.6-1.6-3-2.8-4.1c-1.2-1.2-2.6-2.1-4.1-2.8c-1.6-0.7-3.3-1-5-1c-1.8,0-3.4,0.3-5,1
		c-1.6,0.7-2.9,1.6-4.1,2.8c-1.2,1.2-2.1,2.6-2.8,4.1C95.4,301.4,95.1,303.1,95.1,304.9z"/>
	<path class="st0" d="M154.8,295.4c-1.2-1.1-2.6-1.9-4.1-2.6c-1.5-0.6-3.2-1-5-1c-1.8,0-3.4,0.3-5,1c-1.6,0.7-2.9,1.6-4.1,2.8
		c-1.2,1.2-2.1,2.6-2.8,4.1c-0.7,1.6-1,3.3-1,5c0,1.8,0.3,3.4,1,5c0.7,1.6,1.6,2.9,2.8,4.1c1.2,1.2,2.5,2.1,4.1,2.8
		c1.6,0.7,3.2,1,5,1c1.8,0,3.4-0.3,5-1c1.5-0.6,2.9-1.5,4.1-2.7c0.4-0.4,1-0.6,1.6-0.6c0.6,0,1.2,0.2,1.6,0.6c0.4,0.4,0.6,1,0.6,1.6
		c0,0.6-0.3,1.2-0.8,1.8c-0.4,0.4-1,0.9-1.8,1.5c-0.7,0.6-1.6,1.1-2.7,1.5c-1,0.5-2.2,0.9-3.5,1.2c-1.3,0.3-2.7,0.5-4.1,0.5
		c-2.4,0-4.6-0.4-6.7-1.3c-2.1-0.9-3.9-2.1-5.5-3.6c-1.6-1.5-2.8-3.4-3.7-5.5c-0.9-2.1-1.4-4.4-1.4-6.9c0-2.4,0.4-4.6,1.3-6.7
		c0.9-2.1,2.1-3.9,3.7-5.5c1.6-1.6,3.4-2.8,5.5-3.7c2.1-0.9,4.5-1.5,6.9-1.5c1.4,0,2.8,0.2,4,0.5c1.2,0.4,2.3,0.8,3.3,1.3
		c1,0.5,1.9,1,2.6,1.6c0.8,0.6,1.4,1.1,1.9,1.5c0.3,0.2,0.5,0.7,0.8,1.3c0.2,0.6,0.1,1.2-0.5,1.8c-0.4,0.4-1,0.6-1.6,0.6
		C155.8,296.1,155.2,295.9,154.8,295.4z"/>
	<path class="st0" d="M179.5,287.4c2.3,0,4.5,0.5,6.6,1.4c2.1,0.9,3.9,2.2,5.5,3.8c1.6,1.6,2.8,3.4,3.8,5.5c0.9,2.1,1.4,4.4,1.4,6.8
		v15.2c0,0.6-0.2,1.2-0.6,1.6c-0.4,0.4-1,0.6-1.6,0.6c-0.6,0-1.2-0.2-1.6-0.6c-0.4-0.4-0.6-1-0.6-1.6v-4.4c-1.6,1.8-3.5,3.3-5.7,4.6
		c-2.2,1.3-4.6,1.9-7.2,1.9c-2.4,0-4.6-0.4-6.7-1.3c-2.1-0.9-3.9-2.1-5.5-3.6c-1.6-1.5-2.8-3.4-3.7-5.5c-0.9-2.1-1.4-4.4-1.4-6.9
		c0-2.4,0.4-4.6,1.3-6.7c0.9-2.1,2.1-3.9,3.7-5.5c1.6-1.6,3.4-2.8,5.5-3.7C174.7,288,177,287.5,179.5,287.4z M166.5,304.9
		c0,1.8,0.3,3.4,1,5c0.7,1.6,1.6,2.9,2.8,4.1c1.2,1.2,2.5,2.1,4.1,2.8c1.6,0.7,3.2,1,5,1c1.7,0,3.4-0.3,4.9-1
		c1.5-0.6,2.9-1.5,4.1-2.7c1.2-1.2,2.1-2.5,2.8-4.1c0.7-1.6,1.1-3.3,1.2-5.1c0-1.8-0.3-3.5-1-5c-0.7-1.6-1.6-3-2.8-4.1
		c-1.2-1.2-2.6-2.1-4.1-2.8c-1.6-0.7-3.3-1-5-1c-1.8,0-3.4,0.3-5,1c-1.6,0.7-2.9,1.6-4.1,2.8c-1.2,1.2-2.1,2.6-2.8,4.1
		C166.8,301.4,166.5,303.1,166.5,304.9z"/>
	<path class="st0" d="M214.8,320c0,0.6-0.2,1.2-0.6,1.6c-0.4,0.4-1,0.6-1.6,0.6c-2.2,0-4.1-0.5-5.5-1.3c-1.5-0.8-2.7-1.8-3.6-3
		c-0.9-1.2-1.6-2.5-2-3.8c-0.4-1.3-0.6-2.5-0.6-3.6v-32.6c0-0.6,0.2-1.2,0.6-1.6c0.4-0.4,1-0.6,1.6-0.6c0.6,0,1.2,0.2,1.6,0.6
		c0.4,0.4,0.6,1,0.6,1.6v32.6c0,0.4,0.1,1,0.3,1.7c0.2,0.8,0.5,1.6,1,2.4c0.5,0.8,1.3,1.5,2.2,2.2c1,0.6,2.2,1,3.8,1
		c0.6,0,1.2,0.2,1.6,0.6C214.6,318.8,214.8,319.4,214.8,320z"/>
</g>
<ellipse class="st0" cx="106.5" cy="238.6" rx="29.5" ry="11"/>
<path class="st0" d="M191.6,0c-11.7,0-21.1,10.1-21.3,21.8c-0.3,35-28.8,63.2-63.8,63.2c-35,0-63.5-28.2-63.8-63.2
	C42.6,10.1,33.2,0,21.4,0C9.7,0,0.2,9.5,0.2,21.2c0,63.1,52,135,83.3,172.5c12.6,15.2,33.4,15.2,46.1,0
	c31.3-37.5,83.3-109.4,83.3-172.5C212.8,9.5,203.3,0,191.6,0z"/>
</svg>
